# xmcd
#
# Track frame offsets: 
#        150
#        13892
#        33252
#        45129
#        61754
#        94397
#        112504
#        124666
#        149650
#        169776
#        188041
#
# Disc length: 2778 seconds
#
# Revision: 2
# Processed by: cddbd v1.5.1PL0 Copyright (c) Steve Scherf et al.
# Submitted via: ExactAudioCopy v0.95a5
#
DISCID=870ad80b
DTITLE=Alvin Youngblood Hart - Territory
DYEAR=1998
DGENRE=Blues
TTITLE0=Tallacatcha
TTITLE1=Illinois Blues
TTITLE2=Ouachita Run
TTITLE3=Sallie, Queen of the Pines
TTITLE4=Countrycide
TTITLE5=Ice Rose
TTITLE6=Dancing with Tears in My Eyes
TTITLE7=Mama Don't Allow
TTITLE8=John Hardy
TTITLE9=Just About to Go
TTITLE10=Underway at Seven
EXTD=
EXTT0=
EXTT1=
EXTT2=
EXTT3=
EXTT4=
EXTT5=
EXTT6=
EXTT7=
EXTT8=
EXTT9=
EXTT10=
PLAYORDER=
